<?xml version="1.0" standalone="no"?>
<!DOCTYPE svg PUBLIC "-//W3C//DTD SVG 20010904//EN"
 "http://www.w3.org/TR/2001/REC-SVG-20010904/DTD/svg10.dtd">
<svg version="1.0" xmlns="http://www.w3.org/2000/svg"
 width="75.000000pt" height="75.000000pt" viewBox="0 0 75.000000 75.000000"
 preserveAspectRatio="xMidYMid meet">

<g transform="translate(0.000000,75.000000) scale(0.100000,-0.100000)"
fill="#000000" stroke="none">
<path d="M162 538 c-7 -7 -12 -42 -12 -89 0 -69 -2 -77 -20 -82 -20 -5 -20
-12 -18 -139 l3 -133 183 -3 c146 -2 182 0 182 11 0 20 -21 37 -47 37 -19 0
-23 5 -23 31 l0 30 53 -3 52 -3 5 -50 5 -50 55 0 55 0 3 108 c3 102 1 109 -18
114 -18 5 -20 13 -20 107 0 66 -4 106 -12 114 -17 17 -409 17 -426 0z m426
-115 l3 -103 -30 0 c-20 0 -34 -7 -41 -20 -10 -18 -21 -20 -105 -20 l-95 0 0
38 c0 31 8 45 46 85 61 62 48 75 -14 14 l-48 -47 -72 0 -72 0 0 64 c0 104 -17
97 219 94 l206 -3 3 -102z m-280 -175 l3 -108 -91 0 -90 0 0 110 0 111 88 -3
87 -3 3 -107z m312 -28 l0 -80 -45 0 -45 0 0 80 0 80 45 0 45 0 0 -80z m-100
20 l0 -30 -100 0 -100 0 0 30 0 30 100 0 100 0 0 -30z m-180 -70 c0 -16 -4
-30 -10 -30 -5 0 -10 14 -10 30 0 17 5 30 10 30 6 0 10 -13 10 -30z m50 0 c0
-20 -5 -30 -15 -30 -10 0 -15 10 -15 30 0 20 5 30 15 30 10 0 15 -10 15 -30z
m-85 -50 c4 -6 -27 -10 -84 -10 -54 0 -91 4 -91 10 0 13 167 13 175 0z m150 0
c4 -6 -20 -10 -64 -10 -41 0 -71 4 -71 10 0 6 28 10 64 10 36 0 68 -4 71 -10z
m165 0 c0 -5 -21 -10 -46 -10 -27 0 -43 4 -39 10 3 6 24 10 46 10 21 0 39 -4
39 -10z"/>
<path d="M363 503 c9 -2 23 -2 30 0 6 3 -1 5 -18 5 -16 0 -22 -2 -12 -5z"/>
<path d="M405 410 c-27 -28 -45 -50 -39 -50 13 0 99 88 93 95 -3 2 -27 -18
-54 -45z"/>
<path d="M185 250 c-26 -29 -13 -45 13 -17 13 14 19 28 14 31 -5 3 -17 -3 -27
-14z"/>
<path d="M240 245 c-13 -14 -21 -27 -18 -30 2 -3 15 6 28 20 13 14 21 27 18
30 -2 3 -15 -6 -28 -20z"/>
<path d="M570 225 c-20 -24 -6 -28 15 -5 10 11 13 20 8 20 -6 0 -16 -7 -23
-15z"/>
</g>
</svg>
