<?xml version="1.0" standalone="no"?>
<!DOCTYPE svg PUBLIC "-//W3C//DTD SVG 20010904//EN"
 "http://www.w3.org/TR/2001/REC-SVG-20010904/DTD/svg10.dtd">
<svg version="1.0" xmlns="http://www.w3.org/2000/svg"
 width="75.000000pt" height="75.000000pt" viewBox="0 0 75.000000 75.000000"
 preserveAspectRatio="xMidYMid meet">

<g transform="translate(0.000000,75.000000) scale(0.100000,-0.100000)"
fill="#000000" stroke="none">
<path d="M349 561 c-7 -10 -20 -16 -29 -14 -29 8 -39 -20 -42 -119 l-3 -97
-22 15 c-12 8 -31 14 -43 14 -18 0 -20 -6 -20 -62 0 -69 0 -69 50 -128 48 -58
76 -70 162 -70 79 0 126 19 148 61 15 27 4 307 -12 327 -6 6 -20 12 -32 12
-12 0 -25 9 -31 23 -7 15 -18 21 -37 20 -18 -1 -28 4 -31 18 -7 25 -43 25 -58
0z m49 -109 c1 -56 7 -102 12 -102 5 0 11 39 12 88 2 69 6 87 18 87 12 0 16
-18 18 -87 2 -69 6 -88 17 -88 12 0 15 15 15 65 0 57 2 65 19 65 17 0 19 -12
26 -140 10 -202 -1 -220 -141 -220 -73 0 -75 1 -118 40 -54 50 -68 83 -64 146
l3 49 28 -27 c15 -16 32 -28 37 -28 6 0 10 24 10 54 0 97 12 176 26 176 11 0
14 -21 14 -90 0 -53 4 -90 10 -90 6 0 11 7 11 15 1 8 3 20 4 25 1 6 3 46 4 91
1 71 3 80 19 77 15 -3 17 -17 20 -106z"/>
<path d="M303 235 c27 -24 47 -32 47 -19 0 11 -45 43 -60 43 -10 0 -5 -8 13
-24z"/>
<path d="M380 220 c0 -11 5 -20 10 -20 6 0 10 9 10 20 0 11 -4 20 -10 20 -5 0
-10 -9 -10 -20z"/>
<path d="M430 220 c0 -11 5 -20 10 -20 6 0 10 9 10 20 0 11 -4 20 -10 20 -5 0
-10 -9 -10 -20z"/>
<path d="M484 220 c0 -11 5 -20 11 -20 6 0 11 9 11 20 0 11 -5 20 -11 20 -6 0
-11 -9 -11 -20z"/>
</g>
</svg>
