<?xml version="1.0" standalone="no"?>
<!DOCTYPE svg PUBLIC "-//W3C//DTD SVG 20010904//EN"
 "http://www.w3.org/TR/2001/REC-SVG-20010904/DTD/svg10.dtd">
<svg version="1.0" xmlns="http://www.w3.org/2000/svg"
 width="75.000000pt" height="75.000000pt" viewBox="0 0 75.000000 75.000000"
 preserveAspectRatio="xMidYMid meet">

<g transform="translate(0.000000,75.000000) scale(0.100000,-0.100000)"
fill="#000000" stroke="none">
<path d="M132 558 c-13 -13 -18 -281 -6 -312 5 -12 21 -16 70 -16 59 0 64 -2
64 -21 0 -12 -8 -28 -17 -35 -16 -12 -11 -13 35 -14 28 0 52 5 52 10 0 6 -11
10 -25 10 -20 0 -25 5 -25 25 0 14 5 25 10 25 6 0 10 5 10 10 0 6 -33 10 -80
10 l-81 0 3 148 3 147 205 0 205 0 3 -107 c1 -61 7 -108 12 -108 15 0 13 213
-2 228 -17 17 -419 17 -436 0z"/>
<path d="M267 513 c-4 -3 -7 -13 -7 -22 0 -8 -10 -25 -22 -38 -28 -30 -15 -43
15 -15 13 12 30 22 39 22 19 0 45 -29 50 -55 2 -13 12 -21 31 -23 25 -3 33 5
28 32 -3 16 32 46 54 46 27 0 40 27 24 47 -17 20 -53 12 -57 -12 -5 -27 -31
-55 -52 -55 -19 0 -53 33 -44 43 4 4 1 13 -6 22 -13 15 -42 20 -53 8z m33 -23
c0 -5 -4 -10 -10 -10 -5 0 -10 5 -10 10 0 6 5 10 10 10 6 0 10 -4 10 -10z
m160 0 c0 -5 -4 -10 -10 -10 -5 0 -10 5 -10 10 0 6 5 10 10 10 6 0 10 -4 10
-10z m-80 -80 c0 -5 -4 -10 -10 -10 -5 0 -10 5 -10 10 0 6 5 10 10 10 6 0 10
-4 10 -10z"/>
<path d="M170 360 c0 -5 5 -10 10 -10 6 0 10 5 10 10 0 6 -4 10 -10 10 -5 0
-10 -4 -10 -10z"/>
<path d="M388 344 c-56 -30 -74 -112 -38 -171 32 -53 66 -61 175 -42 14 3 20
-1 19 -13 -1 -9 18 -36 42 -59 l44 -43 22 22 22 22 -43 44 c-23 24 -50 43 -59
42 -12 -1 -16 5 -13 19 11 63 11 116 1 135 -28 52 -116 75 -172 44z m133 -33
c64 -65 20 -171 -71 -171 -78 0 -124 80 -86 149 32 57 111 68 157 22z m116
-257 c-10 -10 -68 47 -60 59 3 5 19 -5 36 -22 17 -17 28 -34 24 -37z"/>
<path d="M450 310 c0 -6 11 -15 24 -20 13 -5 27 -18 31 -29 6 -21 25 -29 25
-12 0 23 -15 43 -41 56 -33 18 -39 18 -39 5z"/>
<path d="M170 306 c0 -16 7 -27 21 -31 27 -9 39 4 16 16 -9 6 -17 17 -17 24 0
8 -4 15 -10 15 -5 0 -10 -11 -10 -24z"/>
</g>
</svg>
