<?xml version="1.0" standalone="no"?>
<!DOCTYPE svg PUBLIC "-//W3C//DTD SVG 20010904//EN"
 "http://www.w3.org/TR/2001/REC-SVG-20010904/DTD/svg10.dtd">
<svg version="1.0" xmlns="http://www.w3.org/2000/svg"
 width="75.000000pt" height="75.000000pt" viewBox="0 0 75.000000 75.000000"
 preserveAspectRatio="xMidYMid meet">

<g transform="translate(0.000000,75.000000) scale(0.100000,-0.100000)"
fill="#000000" stroke="none">
<path d="M174 536 c-28 -28 -34 -41 -34 -77 0 -38 6 -48 55 -97 53 -53 56 -54
99 -50 59 7 75 -9 68 -68 -4 -43 -3 -46 50 -99 49 -49 59 -55 97 -55 61 0 111
50 111 111 0 38 -6 48 -55 97 -53 53 -56 54 -99 50 -59 -7 -75 9 -68 68 4 43
3 46 -50 99 -49 49 -59 55 -97 55 -36 0 -49 -6 -77 -34z m114 10 c57 -30 109
-106 96 -141 -9 -21 -22 -19 -29 6 -10 30 -84 109 -103 109 -21 0 -62 -40 -62
-60 0 -20 77 -95 109 -105 25 -7 27 -20 6 -29 -35 -13 -111 39 -142 97 -18 35
-10 77 20 104 38 35 65 40 105 19z m6 -75 c27 -28 27 -29 7 -36 -11 -3 -23
-15 -26 -26 -7 -20 -8 -20 -36 7 -31 30 -36 53 -17 72 19 19 42 14 72 -17z
m98 -128 c74 -74 93 -103 66 -103 -17 0 -168 151 -168 167 0 27 28 10 102 -64z
m108 -13 c16 0 80 -62 96 -91 20 -40 18 -63 -11 -97 -32 -38 -74 -48 -112 -29
-58 31 -110 107 -97 142 9 21 22 19 29 -6 10 -30 84 -109 103 -109 21 0 62 40
62 60 0 20 -77 95 -109 105 -11 3 -21 10 -21 15 0 11 22 19 38 14 8 -2 18 -4
22 -4z m50 -130 c0 -9 -5 -21 -12 -28 -19 -19 -42 -14 -72 17 -27 28 -27 29
-7 36 11 3 23 15 26 26 7 20 8 20 36 -7 16 -15 29 -35 29 -44z"/>
</g>
</svg>
