<?xml version="1.0" standalone="no"?>
<!DOCTYPE svg PUBLIC "-//W3C//DTD SVG 20010904//EN"
 "http://www.w3.org/TR/2001/REC-SVG-20010904/DTD/svg10.dtd">
<svg version="1.0" xmlns="http://www.w3.org/2000/svg"
 width="75.000000pt" height="75.000000pt" viewBox="0 0 75.000000 75.000000"
 preserveAspectRatio="xMidYMid meet">

<g transform="translate(0.000000,75.000000) scale(0.100000,-0.100000)"
fill="#000000" stroke="none">
<path d="M335 529 c-16 -10 -61 -31 -99 -46 l-69 -27 6 -93 c8 -141 66 -242
164 -288 44 -21 75 -10 134 47 62 60 91 133 97 243 l5 91 -49 19 c-27 10 -71
30 -99 44 -27 14 -52 27 -55 28 -3 1 -18 -7 -35 -18z m69 -18 c17 -10 57 -29
89 -41 l57 -24 0 -76 c0 -98 -21 -157 -76 -219 -80 -89 -128 -89 -208 0 -56
62 -76 121 -76 219 l0 77 68 27 c38 14 78 33 88 41 24 18 21 18 58 -4z"/>
<path d="M233 438 c-23 -11 -33 -58 -13 -58 6 0 10 9 10 20 0 11 4 20 8 20 5
0 17 7 28 15 23 18 1 20 -33 3z"/>
<path d="M396 343 l-55 -58 -24 23 c-28 26 -60 26 -65 0 -4 -21 64 -98 87 -98
23 0 153 146 149 167 -7 36 -38 25 -92 -34z m74 25 c0 -14 -120 -138 -132
-138 -12 0 -67 63 -68 78 0 19 11 15 42 -15 l29 -27 57 57 c58 58 72 67 72 45z"/>
<path d="M450 180 c-37 -47 -24 -55 14 -9 23 28 33 49 22 49 -2 0 -19 -18 -36
-40z"/>
</g>
</svg>
