<?xml version="1.0" standalone="no"?>
<!DOCTYPE svg PUBLIC "-//W3C//DTD SVG 20010904//EN"
 "http://www.w3.org/TR/2001/REC-SVG-20010904/DTD/svg10.dtd">
<svg version="1.0" xmlns="http://www.w3.org/2000/svg"
 width="75.000000pt" height="75.000000pt" viewBox="0 0 75.000000 75.000000"
 preserveAspectRatio="xMidYMid meet">

<g transform="translate(0.000000,75.000000) scale(0.100000,-0.100000)"
fill="#000000" stroke="none">
<path d="M370 540 c-16 -16 -20 -33 -20 -80 l0 -60 -82 0 c-46 0 -90 -4 -98
-10 -13 -8 -21 -49 -21 -110 0 -14 0 -39 0 -57 0 -21 7 -35 20 -42 12 -7 17
-18 14 -29 -2 -11 3 -27 12 -36 15 -14 41 -16 203 -15 109 1 192 5 200 11 17
14 17 259 0 276 -15 15 -80 16 -95 1 -7 -7 -19 -9 -27 -6 -12 5 -16 22 -16 72
0 68 -20 105 -55 105 -8 0 -24 -9 -35 -20z m68 -77 c2 -63 6 -75 27 -92 24
-18 25 -24 25 -135 l0 -117 -142 3 c-135 3 -143 4 -143 23 0 13 8 21 23 23 37
6 25 22 -17 22 -39 0 -53 12 -43 38 2 7 21 12 43 12 53 0 50 18 -3 22 -35 2
-43 7 -43 23 0 16 8 21 43 23 52 4 55 20 5 24 -30 2 -38 7 -38 23 0 18 8 20
85 23 46 2 90 8 97 14 8 6 13 34 13 73 0 70 4 77 40 73 24 -3 25 -6 28 -75z
m152 -213 l0 -130 -40 0 -40 0 0 130 0 130 40 0 40 0 0 -130z"/>
</g>
</svg>
